<?xml version="1.0" encoding="utf-8"?>
<svg id="master-artboard" version="1.1" x="0px" style="enable-background:new 0 0 1400 980;" height="231.9542694091797px" viewBox="0 0 229.4816436767578 231.9542694091797" xmlns="http://www.w3.org/2000/svg" y="0px" width="229.4816436767578px"><defs><style id="ee-google-fonts">@import url(https://fonts.googleapis.com/css?family=Open+Sans:300,300italic,400,400italic,600,600italic,700,700italic,800,800italic);</style></defs><rect id="ee-background" x="0" y="0" width="229.4816436767578" height="231.9542694091797" style="fill: white; fill-opacity: 1; pointer-events: none;"/>








































<g transform="matrix(0.9761598110198973, 0, 0, 0.9761598110198973, -933.2784473786647, -943.1588306997751)"><g transform="matrix(1, 0, 0, 1, 0, 0)">
				<path fill="#CCCCCB" d="M1073.8,972.2c-61.6,0-111.8,50.1-111.8,111.8c0,61.6,50.1,111.8,111.8,111.8&#10;&#9;&#9;&#9;&#9;&#9;c61.6,0,111.8-50.1,111.8-111.8C1185.6,1022.3,1135.5,972.2,1073.8,972.2z M1073.8,1178.5c-52.2,0-94.6-42.4-94.6-94.6&#10;&#9;&#9;&#9;&#9;&#9;c0-52.2,42.4-94.6,94.6-94.6c52.2,0,94.6,42.4,94.6,94.6C1168.4,1136.1,1126,1178.5,1073.8,1178.5z" style="fill: rgb(32, 178, 255);"/>
				<path fill="#CCCCCB" d="M1112.5,1049.7l-47.2,47.2l-23.1-23.1c-3.9-3.9-10.3-3.9-14.2,0c-3.9,3.9-3.9,10.3,0,14.2l30.2,30.2&#10;&#9;&#9;&#9;&#9;&#9;c2,2,4.5,2.9,7.1,2.9s5.2-1,7.1-2.9l54.3-54.3c3.9-3.9,3.9-10.3,0-14.2C1122.8,1045.7,1116.4,1045.7,1112.5,1049.7z" style="fill: rgb(32, 178, 255);"/>
			</g></g></svg>