<?xml version="1.0" encoding="utf-8"?>
<svg id="master-artboard" viewBox="0 0 1318.139404296875 537.2077026367188" version="1.1" xmlns="http://www.w3.org/2000/svg" x="0px" y="0px" style="enable-background:new 0 0 1400 980;" width="1318.139404296875px" height="537.2077026367188px"><defs><style id="ee-google-fonts">@import url(https://fonts.googleapis.com/css?family=Open+Sans:300,600,700,800,300italic,400,400italic,600italic,700italic,800italic);</style></defs><rect id="ee-background" x="0" y="0" width="1318.139404296875" height="537.2077026367188" style="fill: white; fill-opacity: 1; pointer-events: none;"/>








































<path d="M 16.510000228881836 4.879999160766602 C 14.116666793823242 4.879999160766602 12.263333320617676 5.776666641235352 10.949999809265137 7.569999694824219 C 9.636666297912598 9.370000839233398 8.979999542236328 11.876667022705078 8.979999542236328 15.09000015258789 C 8.979999542236328 21.77666664123535 11.489999771118164 25.119998931884766 16.510000228881836 25.119998931884766 C 18.616666793823242 25.119998931884766 21.16666603088379 24.593334197998047 24.15999984741211 23.540000915527344 L 24.15999984741211 28.8700008392334 C 21.700000762939453 29.89666748046875 18.950000762939453 30.40999984741211 15.90999984741211 30.40999984741211 C 11.550000190734863 30.40999984741211 8.216666221618652 29.086666107177734 5.909999847412109 26.440000534057617 C 3.5966665744781494 23.793333053588867 2.440000057220459 19.996665954589844 2.440000057220459 15.050000190734863 C 2.440000057220459 11.930000305175781 3.006666660308838 9.200000762939453 4.139999866485596 6.8600006103515625 C 5.273333549499512 4.513334274291992 6.9033331871032715 2.7133331298828125 9.029999732971191 1.4599990844726562 C 11.15666675567627 0.2133331298828125 13.649999618530273 -0.4099998474121094 16.510000228881836 -0.4099998474121094 C 19.4233341217041 -0.4099998474121094 22.350000381469727 0.2933330535888672 25.290000915527344 1.7000007629394531 L 23.239999771118164 6.870000839233398 C 22.113332748413086 6.336666107177734 20.983333587646484 5.870000839233398 19.850000381469727 5.469999313354492 C 18.71666717529297 5.076665878295898 17.60333251953125 4.879999160766602 16.510000228881836 4.879999160766602 ZM 36.889686584472656 13.329999923706055 L 38.9396858215332 13.329999923706055 C 40.95301818847656 13.329999923706055 42.43635177612305 12.99333381652832 43.389686584472656 12.319999694824219 C 44.34968566894531 11.65333366394043 44.82968521118164 10.600000381469727 44.82968521118164 9.15999984741211 C 44.82968521118164 7.739999771118164 44.339683532714844 6.729999542236328 43.35968780517578 6.129999160766602 C 42.37968444824219 5.530000686645508 40.86635208129883 5.229999542236328 38.81968688964844 5.229999542236328 L 36.889686584472656 5.229999542236328 L 36.889686584472656 13.329999923706055 M 36.889686584472656 18.5 L 36.889686584472656 30 L 30.529685974121094 30 L 30.529685974121094 0.020000457763671875 L 39.269683837890625 0.020000457763671875 C 43.343017578125 0.020000457763671875 46.356353759765625 0.7600002288818359 48.30968475341797 2.239999771118164 C 50.269683837890625 3.7266674041748047 51.24968719482422 5.979999542236328 51.24968719482422 9 C 51.24968719482422 10.766666412353516 50.76301956176758 12.336666107177734 49.78968811035156 13.709999084472656 C 48.81635284423828 15.083333015441895 47.443016052246094 16.15999984741211 45.66968536376953 16.939998626708984 C 50.183021545410156 23.68000030517578 53.123016357421875 28.03333282470703 54.48968505859375 30 L 47.4296875 30 L 40.269683837890625 18.5 L 36.889686584472656 18.5 ZM 85.47312927246094 14.970000267028809 C 85.47312927246094 19.93000030517578 84.24313354492188 23.74333381652832 81.78312683105469 26.40999984741211 C 79.31646728515625 29.0766658782959 75.78646850585938 30.40999984741211 71.19313049316406 30.40999984741211 C 66.59980010986328 30.40999984741211 63.0731315612793 29.0766658782959 60.61313247680664 26.40999984741211 C 58.15312957763672 23.74333381652832 56.92313003540039 19.916667938232422 56.92313003540039 14.930000305175781 C 56.92313003540039 9.936666488647461 58.156463623046875 6.123332977294922 60.623130798339844 3.489999771118164 C 63.08979797363281 0.8633327484130859 66.62646484375 -0.4500007629394531 71.2331314086914 -0.4500007629394531 C 75.84646606445312 -0.4500007629394531 79.37313079833984 0.8733329772949219 81.8131332397461 3.520000457763672 C 84.25312805175781 6.173334121704102 85.47312927246094 9.989999771118164 85.47312927246094 14.970000267028809 M 63.59313201904297 14.970000267028809 C 63.59313201904297 18.316665649414062 64.2264633178711 20.84000015258789 65.49313354492188 22.540000915527344 C 66.76646423339844 24.233333587646484 68.66646575927734 25.079999923706055 71.19313049316406 25.079999923706055 C 76.26646423339844 25.079999923706055 78.80313110351562 21.709999084472656 78.80313110351562 14.970000267028809 C 78.80313110351562 8.216667175292969 76.27980041503906 4.840000152587891 71.2331314086914 4.840000152587891 C 68.70646667480469 4.840000152587891 66.79979705810547 5.690000534057617 65.51313018798828 7.3899993896484375 C 64.2331314086914 9.09000015258789 63.59313201904297 11.616666793823242 63.59313201904297 14.970000267028809 ZM 109.37710571289062 21.670000076293945 C 109.37710571289062 24.376667022705078 108.40377044677734 26.510000228881836 106.45710754394531 28.06999969482422 C 104.51043701171875 29.6299991607666 101.8004379272461 30.40999984741211 98.32710266113281 30.40999984741211 C 95.12710571289062 30.40999984741211 92.29710388183594 29.809999465942383 89.83710479736328 28.610000610351562 L 89.83710479736328 22.700000762939453 C 91.85710144042969 23.600000381469727 93.56710815429688 24.23666763305664 94.96710205078125 24.610000610351562 C 96.37377166748047 24.976665496826172 97.6571044921875 25.15999984741211 98.81710815429688 25.15999984741211 C 100.21043395996094 25.15999984741211 101.28044128417969 24.893333435058594 102.02710723876953 24.360000610351562 C 102.77377319335938 23.82666778564453 103.14710235595703 23.03333282470703 103.14710235595703 21.979999542236328 C 103.14710235595703 21.393333435058594 102.98377227783203 20.869998931884766 102.6571044921875 20.40999984741211 C 102.32376861572266 19.956666946411133 101.84043884277344 19.516666412353516 101.20710754394531 19.09000015258789 C 100.57376861572266 18.663333892822266 99.27710723876953 17.98666763305664 97.31710815429688 17.060001373291016 C 95.49044036865234 16.200000762939453 94.11710357666016 15.373332977294922 93.19710540771484 14.579999923706055 C 92.28376770019531 13.786666870117188 91.55377197265625 12.863332748413086 91.0071029663086 11.809999465942383 C 90.46043395996094 10.75666618347168 90.18710327148438 9.526666641235352 90.18710327148438 8.120000839233398 C 90.18710327148438 5.466667175292969 91.08377075195312 3.3799991607666016 92.87710571289062 1.8600006103515625 C 94.6771011352539 0.3466663360595703 97.16377258300781 -0.4099998474121094 100.33710479736328 -0.4099998474121094 C 101.89710235595703 -0.4099998474121094 103.38377380371094 -0.2266674041748047 104.79710388183594 0.1399993896484375 C 106.21043395996094 0.5066661834716797 107.69043731689453 1.0266666412353516 109.23710632324219 1.7000007629394531 L 107.18710327148438 6.6399993896484375 C 105.58710479736328 5.986665725708008 104.2637710571289 5.530000686645508 103.21710205078125 5.270000457763672 C 102.17044067382812 5.010000228881836 101.14044189453125 4.879999160766602 100.12710571289062 4.879999160766602 C 98.92710876464844 4.879999160766602 98.00376892089844 5.159999847412109 97.35710144042969 5.719999313354492 C 96.71710205078125 6.280000686645508 96.39710235595703 7.010000228881836 96.39710235595703 7.909999847412109 C 96.39710235595703 8.469999313354492 96.52710723876953 8.959999084472656 96.78710174560547 9.379999160766602 C 97.04710388183594 9.793333053588867 97.46043395996094 10.196666717529297 98.02710723876953 10.59000015258789 C 98.5937728881836 10.976667404174805 99.93710327148438 11.676666259765625 102.0571060180664 12.690000534057617 C 104.85710144042969 14.029999732971191 106.77710723876953 15.373332977294922 107.81710815429688 16.720001220703125 C 108.85710144042969 18.066665649414062 109.37710571289062 19.71666717529297 109.37710571289062 21.670000076293945 ZM 132.50730895996094 21.670000076293945 C 132.50730895996094 24.376667022705078 131.5339813232422 26.510000228881836 129.58731079101562 28.06999969482422 C 127.6406478881836 29.6299991607666 124.93064880371094 30.40999984741211 121.45731353759766 30.40999984741211 C 118.25731658935547 30.40999984741211 115.42731475830078 29.809999465942383 112.96731567382812 28.610000610351562 L 112.96731567382812 22.700000762939453 C 114.98731231689453 23.600000381469727 116.69731140136719 24.23666763305664 118.0973129272461 24.610000610351562 C 119.50398254394531 24.976665496826172 120.78731536865234 25.15999984741211 121.94731140136719 25.15999984741211 C 123.34065246582031 25.15999984741211 124.41064453125 24.893333435058594 125.15731811523438 24.360000610351562 C 125.90398406982422 23.82666778564453 126.27731323242188 23.03333282470703 126.27731323242188 21.979999542236328 C 126.27731323242188 21.393333435058594 126.11398315429688 20.869998931884766 125.78731536865234 20.40999984741211 C 125.4539794921875 19.956666946411133 124.97064971923828 19.516666412353516 124.33731842041016 19.09000015258789 C 123.7039794921875 18.663333892822266 122.40731811523438 17.98666763305664 120.44731140136719 17.060001373291016 C 118.62065124511719 16.200000762939453 117.247314453125 15.373332977294922 116.32731628417969 14.579999923706055 C 115.41397857666016 13.786666870117188 114.6839828491211 12.863332748413086 114.13731384277344 11.809999465942383 C 113.59065246582031 10.75666618347168 113.31731414794922 9.526666641235352 113.31731414794922 8.120000839233398 C 113.31731414794922 5.466667175292969 114.21398162841797 3.3799991607666016 116.00731658935547 1.8600006103515625 C 117.80731201171875 0.3466663360595703 120.29398345947266 -0.4099998474121094 123.46731567382812 -0.4099998474121094 C 125.02731323242188 -0.4099998474121094 126.51398468017578 -0.2266674041748047 127.92731475830078 0.1399993896484375 C 129.3406524658203 0.5066661834716797 130.82064819335938 1.0266666412353516 132.3673095703125 1.7000007629394531 L 130.31732177734375 6.6399993896484375 C 128.71731567382812 5.986665725708008 127.39398193359375 5.530000686645508 126.3473129272461 5.270000457763672 C 125.30065155029297 5.010000228881836 124.27064514160156 4.879999160766602 123.25731658935547 4.879999160766602 C 122.05731201171875 4.879999160766602 121.13397979736328 5.159999847412109 120.48731231689453 5.719999313354492 C 119.8473129272461 6.280000686645508 119.52731323242188 7.010000228881836 119.52731323242188 7.909999847412109 C 119.52731323242188 8.469999313354492 119.65731811523438 8.959999084472656 119.91731262207031 9.379999160766602 C 120.17731475830078 9.793333053588867 120.59065246582031 10.196666717529297 121.15731811523438 10.59000015258789 C 121.72398376464844 10.976667404174805 123.06731414794922 11.676666259765625 125.18731689453125 12.690000534057617 C 127.98731994628906 14.029999732971191 129.90731811523438 15.373332977294922 130.9473114013672 16.720001220703125 C 131.98731994628906 18.066665649414062 132.50730895996094 19.71666717529297 132.50730895996094 21.670000076293945 ZM 150.67752075195312 4.879999160766602 C 148.28419494628906 4.879999160766602 146.4308624267578 5.776666641235352 145.11752319335938 7.569999694824219 C 143.80419921875 9.370000839233398 143.14752197265625 11.876667022705078 143.14752197265625 15.09000015258789 C 143.14752197265625 21.77666664123535 145.65753173828125 25.119998931884766 150.67752075195312 25.119998931884766 C 152.78419494628906 25.119998931884766 155.33419799804688 24.593334197998047 158.32752990722656 23.540000915527344 L 158.32752990722656 28.8700008392334 C 155.86752319335938 29.89666748046875 153.11752319335938 30.40999984741211 150.07752990722656 30.40999984741211 C 145.717529296875 30.40999984741211 142.38418579101562 29.086666107177734 140.07752990722656 26.440000534057617 C 137.76419067382812 23.793333053588867 136.60752868652344 19.996665954589844 136.60752868652344 15.050000190734863 C 136.60752868652344 11.930000305175781 137.1741943359375 9.200000762939453 138.30752563476562 6.8600006103515625 C 139.44085693359375 4.513334274291992 141.07086181640625 2.7133331298828125 143.19752502441406 1.4599990844726562 C 145.32418823242188 0.2133331298828125 147.81752014160156 -0.4099998474121094 150.67752075195312 -0.4099998474121094 C 153.5908660888672 -0.4099998474121094 156.5175323486328 0.2933330535888672 159.45751953125 1.7000007629394531 L 157.40753173828125 6.870000839233398 C 156.28085327148438 6.336666107177734 155.15086364746094 5.870000839233398 154.0175323486328 5.469999313354492 C 152.88418579101562 5.076665878295898 151.77085876464844 4.879999160766602 150.67752075195312 4.879999160766602 ZM 189.2672119140625 30 L 182.92721557617188 30 L 182.92721557617188 17.060001373291016 L 171.05722045898438 17.060001373291016 L 171.05722045898438 30 L 164.6972198486328 30 L 164.6972198486328 0.020000457763671875 L 171.05722045898438 0.020000457763671875 L 171.05722045898438 11.770000457763672 L 182.92721557617188 11.770000457763672 L 182.92721557617188 0.020000457763671875 L 189.2672119140625 0.020000457763671875 L 189.2672119140625 30 ZM 214.09933471679688 30 L 196.829345703125 30 L 196.829345703125 0.020000457763671875 L 214.09933471679688 0.020000457763671875 L 214.09933471679688 5.229999542236328 L 203.18934631347656 5.229999542236328 L 203.18934631347656 11.809999465942383 L 213.33934020996094 11.809999465942383 L 213.33934020996094 17.020000457763672 L 203.18934631347656 17.020000457763672 L 203.18934631347656 24.75 L 214.09933471679688 24.75 L 214.09933471679688 30 ZM 233.08914184570312 4.879999160766602 C 230.69581604003906 4.879999160766602 228.8424835205078 5.776666641235352 227.52914428710938 7.569999694824219 C 226.2158203125 9.370000839233398 225.55914306640625 11.876667022705078 225.55914306640625 15.09000015258789 C 225.55914306640625 21.77666664123535 228.06915283203125 25.119998931884766 233.08914184570312 25.119998931884766 C 235.19581604003906 25.119998931884766 237.74581909179688 24.593334197998047 240.73915100097656 23.540000915527344 L 240.73915100097656 28.8700008392334 C 238.27914428710938 29.89666748046875 235.52914428710938 30.40999984741211 232.48915100097656 30.40999984741211 C 228.129150390625 30.40999984741211 224.79580688476562 29.086666107177734 222.48915100097656 26.440000534057617 C 220.17581176757812 23.793333053588867 219.01914978027344 19.996665954589844 219.01914978027344 15.050000190734863 C 219.01914978027344 11.930000305175781 219.5858154296875 9.200000762939453 220.71914672851562 6.8600006103515625 C 221.85247802734375 4.513334274291992 223.48248291015625 2.7133331298828125 225.60914611816406 1.4599990844726562 C 227.73580932617188 0.2133331298828125 230.22914123535156 -0.4099998474121094 233.08914184570312 -0.4099998474121094 C 236.0024871826172 -0.4099998474121094 238.9291534423828 0.2933330535888672 241.869140625 1.7000007629394531 L 239.81915283203125 6.870000839233398 C 238.69247436523438 6.336666107177734 237.56248474121094 5.870000839233398 236.4291534423828 5.469999313354492 C 235.29580688476562 5.076665878295898 234.18247985839844 4.879999160766602 233.08914184570312 4.879999160766602 ZM 271.22882080078125 30 L 264.00885009765625 30 L 256.1588439941406 17.369998931884766 L 253.46884155273438 19.290000915527344 L 253.46884155273438 30 L 247.1088409423828 30 L 247.1088409423828 0.020000457763671875 L 253.46884155273438 0.020000457763671875 L 253.46884155273438 13.739999771118164 L 255.96884155273438 10.209999084472656 L 264.0888366699219 0.020000457763671875 L 271.1488342285156 0.020000457763671875 L 260.6888427734375 13.290000915527344 L 271.22882080078125 30 Z" transform="matrix(3.720930337905884, 0, 0, 3.720930337905884, 144.58132934570312, 332.7900695800781)" style="fill: rgb(32, 178, 255);"/><g transform="matrix(0.9761598110198975, 0, 0, 0.9761598110198975, -397.8925128319522, -903.8097534179688)"><g transform="matrix(1, 0, 0, 1, 0, 0)">
				<path fill="#CCCCCB" d="M1073.8,972.2c-61.6,0-111.8,50.1-111.8,111.8c0,61.6,50.1,111.8,111.8,111.8&#10;&#9;&#9;&#9;&#9;&#9;c61.6,0,111.8-50.1,111.8-111.8C1185.6,1022.3,1135.5,972.2,1073.8,972.2z M1073.8,1178.5c-52.2,0-94.6-42.4-94.6-94.6&#10;&#9;&#9;&#9;&#9;&#9;c0-52.2,42.4-94.6,94.6-94.6c52.2,0,94.6,42.4,94.6,94.6C1168.4,1136.1,1126,1178.5,1073.8,1178.5z" style="fill: rgb(32, 178, 255);"/>
				<path fill="#CCCCCB" d="M1112.5,1049.7l-47.2,47.2l-23.1-23.1c-3.9-3.9-10.3-3.9-14.2,0c-3.9,3.9-3.9,10.3,0,14.2l30.2,30.2&#10;&#9;&#9;&#9;&#9;&#9;c2,2,4.5,2.9,7.1,2.9s5.2-1,7.1-2.9l54.3-54.3c3.9-3.9,3.9-10.3,0-14.2C1122.8,1045.7,1116.4,1045.7,1112.5,1049.7z" style="fill: rgb(32, 178, 255);"/>
			</g></g></svg>